:SAMPLES-PER-SECOND 30
:FULLY-SPECIFIED
:DEGREES
186
root  -0.815741 39.2608 -0.356493 97.9434 -81.5809 -106.851
RightUpLeg  -0.0664443 -2.47228 7.74374
RightLeg  18.9344 -23.7512 -3.87449
RightFoot  -9.0691 -0.105689 2.46078
RightToes  -3.1126e-008 1.75238e-005 3.56266e-009
Spine  3.03825 -6.82485 8.44573
Spine1  23.4854 -12.2568 14.7786
HEad  -5.23532 8.1982 3.85131
LeftShoulder1  1.34558 -5.19388 -7.94661
LeftArm  -53.006 -39.4768 -7.59422
LeftForeArm  14.5873 -53.0393 -13.838
LeftHand  3.32655 -10.2454 -23.8335
RightShoulder  2.04292 4.6401 18.6058
RightArm  -20.8138 -14.9484 49.8577
RightForeArm  30.2516 18.4421 4.59283
RightHand  -0.14856 3.40985 -2.15605
LeftUpLeg  -7.74908 12.5566 14.1746
LeftLeg  34.8869 -0.0488942 0.309605
LeftFoot  -12.9618 -0.00392476 -5.76335
LeftToes  4.78349e-008 1.46828e-008 1.33736e-009
187
root  -0.726091 39.2459 -0.408991 91.481 -81.927 -100.575
RightUpLeg  -0.110295 -2.62987 7.63744
RightLeg  19.3001 -24.5082 -4.2606
RightFoot  -9.1336 -0.1062 2.50582
RightToes  -3.1126e-008 1.75238e-005 3.56266e-009
Spine  3.43029 -6.88408 9.17027
Spine1  23.712 -12.2782 14.6577
HEad  -6.31499 8.06549 3.249
LeftShoulder1  1.32851 -4.99798 -8.11904
LeftArm  -57.4872 -41.9072 -8.29646
LeftForeArm  16.4198 -49.4449 -11.8856
LeftHand  1.97771 -7.61109 -16.9507
RightShoulder  2.19723 4.95679 19.5723
RightArm  -32.12 -17.1328 49.9324
RightForeArm  44.4648 12.218 4.68307
RightHand  0.0745601 2.29569 0.878884
LeftUpLeg  -8.05941 12.0844 13.9585
LeftLeg  35.0631 -0.367224 0.0689236
LeftFoot  -12.6173 0.0132318 -5.58917
LeftToes  4.78349e-008 1.46828e-008 1.33736e-009
188
root  -0.638276 39.2339 -0.448773 84.7945 -82.2185 -93.9488
RightUpLeg  -0.342295 -2.76238 7.47858
RightLeg  19.78 -25.2272 -4.73815
RightFoot  -9.20625 -0.109778 2.5967
RightToes  -3.1126e-008 1.75238e-005 3.56266e-009
Spine  4.12187 -7.0731 9.41119
Spine1  23.2712 -12.5102 14.9778
HEad  -7.26437 8.84031 2.01287
LeftShoulder1  1.25436 -4.62572 -7.90016
LeftArm  -60.1884 -43.5445 -9.16367
LeftForeArm  16.2202 -45.996 -10.4548
LeftHand  0.608633 -3.48499 -7.87713
RightShoulder  2.23799 4.96144 20.068
RightArm  -37.2778 -19.2947 51.0083
RightForeArm  52.3255 8.87847 1.91612
RightHand  0.22279 2.20641 3.25818
LeftUpLeg  -8.41423 11.8374 13.6626
LeftLeg  35.0997 -0.776763 -0.240652
LeftFoot  -12.317 0.0287825 -5.29045
LeftToes  4.78349e-008 1.46828e-008 1.33736e-009
189
root  -0.576977 39.2549 -0.495314 78.0413 -82.7073 -87.2095
RightUpLeg  -0.515888 -2.99867 7.02654
RightLeg  20.0792 -25.7854 -5.16711
RightFoot  -9.20499 -0.114227 2.69409
RightToes  -3.1126e-008 1.75238e-005 3.56266e-009
Spine  4.63549 -7.44495 9.28241
Spine1  22.8961 -12.7684 14.7965
HEad  -8.31997 9.95144 1.43466
LeftShoulder1  1.27134 -4.81279 -7.73208
LeftArm  -60.9305 -43.9274 -8.86319
LeftForeArm  16.399 -43.2461 -9.41923
LeftHand  -0.0934219 -0.54262 2.0803
RightShoulder  2.27936 5.00279 20.4495
RightArm  -39.4906 -21.7988 52.1949
RightForeArm  53.4135 7.86236 0.4002
RightHand  0.362893 1.50483 5.97435
LeftUpLeg  -8.52402 11.5026 13.0483
LeftLeg  34.7146 -1.11493 -0.48613
LeftFoot  -11.928 0.0446401 -5.22872
LeftToes  4.78349e-008 1.46828e-008 1.33736e-009
190
root  -0.529599 39.2819 -0.527268 74.048 -83.0322 -83.014
RightUpLeg  -0.866423 -2.96318 6.75846
RightLeg  20.313 -26.0067 -5.56035
RightFoot  -9.1059 -0.118923 2.79746
RightToes  -3.1126e-008 1.75238e-005 3.56266e-009
Spine  5.10199 -7.61993 9.03292
Spine1  22.3478 -13.0046 15.1462
HEad  -9.28615 10.6231 0.722359
LeftShoulder1  1.37448 -5.3655 -7.97272
LeftArm  -60.4922 -42.9231 -7.90467
LeftForeArm  17.0728 -42.5365 -9.13266
LeftHand  -0.215417 2.00446 6.84808
RightShoulder  2.11066 4.4695 20.1116
RightArm  -40.2635 -24.1873 53.2027
RightForeArm  51.042 8.74869 0.67729
RightHand  0.471003 1.32575 8.00873
LeftUpLeg  -8.67893 11.7279 12.6313
LeftLeg  34.2609 -1.62788 -0.849776
LeftFoot  -11.5973 0.05819 -5.04295
LeftToes  4.78349e-008 1.46828e-008 1.33736e-009
191
root  -0.505797 39.3091 -0.558536 70.2699 -83.2075 -79.0936
RightUpLeg  -0.9908 -2.89438 6.61753
RightLeg  20.2262 -26.4442 -5.80459
RightFoot  -8.9932 -0.116461 2.78631
RightToes  -3.1126e-008 1.75238e-005 3.56266e-009
Spine  5.63915 -8.13989 9.13236
Spine1  21.8861 -13.2445 14.5177
HEad  -10.0047 11.7309 0.259263
LeftShoulder1  1.2888 -5.04251 -7.50706
LeftArm  -59.5259 -41.2546 -7.39615
LeftForeArm  18.1813 -43.8988 -9.53814
LeftHand  -0.142303 1.48977 3.94632
RightShoulder  2.16355 4.6165 20.292
RightArm  -38.8876 -26.6507 53.3174
RightForeArm  48.858 10.2739 2.24483
RightHand  0.448788 1.13588 7.87928
LeftUpLeg  -8.76207 12.1323 12.4295
LeftLeg  33.9118 -2.27721 -1.30642
LeftFoot  -11.3631 0.0671831 -4.85287
LeftToes  4.78349e-008 1.46828e-008 1.33736e-009
192
root  -0.492605 39.3291 -0.566957 69.0731 -83.2205 -77.5741
RightUpLeg  -1.21752 -2.7677 6.61288
RightLeg  19.9354 -26.7075 -5.7752
RightFoot  -8.81799 -0.115928 2.77411
RightToes  -3.1126e-008 1.75238e-005 3.56266e-009
Spine  6.441 -8.32841 9.2984
Spine1  20.426 -13.2682 14.6863
HEad  -10.2291 12.2145 0.0464601
LeftShoulder1  1.33427 -5.09062 -8.00664
LeftArm  -56.8816 -39.1266 -6.42994
LeftForeArm  16.6423 -46.2728 -10.5342
LeftHand  0.10887 0.332426 -2.43585
RightShoulder  2.00428 4.18285 19.6867
RightArm  -37.4139 -28.6443 53.6598
RightForeArm  45.8038 11.9922 3.47325
RightHand  0.456381 1.67315 7.38747
LeftUpLeg  -9.0922 12.2205 12.3113
LeftLeg  33.759 -2.47445 -1.43917
LeftFoot  -11.2014 0.0730056 -4.81474
LeftToes  4.78349e-008 1.46828e-008 1.33736e-009
193
root  -0.486897 39.3373 -0.565972 70.2258 -83.1937 -78.5127
RightUpLeg  -1.36563 -2.70261 6.67026
RightLeg  19.7116 -26.6825 -5.63561
RightFoot  -8.72351 -0.123807 2.82131
RightToes  -3.1126e-008 1.75238e-005 3.56266e-009
Spine  6.09925 -8.39655 9.66912
Spine1  21.3868 -13.3597 14.2645
HEad  -11.5592 12.1749 0.158727
LeftShoulder1  1.25833 -4.64186 -7.92055
LeftArm  -56.0739 -37.9596 -5.2666
LeftForeArm  15.8315 -48.3975 -11.466
LeftHand  0.771552 -2.44827 -11.0811
RightShoulder  1.88039 3.73301 19.5916
RightArm  -34.8115 -28.7006 53.4383
RightForeArm  41.4948 13.6024 4.45671
RightHand  0.378882 2.55714 5.31452
LeftUpLeg  -9.32428 12.4687 12.3538
LeftLeg  33.7648 -2.52479 -1.47573
LeftFoot  -11.1177 0.0770073 -4.86091
LeftToes  4.78349e-008 1.46828e-008 1.33736e-009
194
root  -0.473901 39.3418 -0.559554 73.1926 -83.1852 -81.2969
RightUpLeg  -1.52076 -2.65905 6.73134
RightLeg  19.4947 -26.4848 -5.39928
RightFoot  -8.59835 -0.120609 2.59835
RightToes  -3.1126e-008 1.75238e-005 3.56266e-009
Spine  6.09251 -8.25897 10.0615
Spine1  21.3481 -13.1333 14.0685
HEad  -11.9702 12.1666 -0.105794
LeftShoulder1  1.32513 -5.08957 -7.88971
LeftArm  -56.3183 -37.0743 -4.63062
LeftForeArm  15.9666 -49.8317 -12.098
LeftHand  1.87141 -5.39481 -19.6879
RightShoulder  1.90629 3.85841 19.4909
RightArm  -33.5722 -28.5525 53.0533
RightForeArm  37.0471 14.6626 4.68218
RightHand  0.152562 2.20102 2.15484
LeftUpLeg  -9.47022 12.6077 12.4148
LeftLeg  33.7462 -2.38865 -1.37697
LeftFoot  -11.1214 0.0759779 -4.86463
LeftToes  4.78349e-008 1.46828e-008 1.33736e-009
195
root  -0.452072 39.3433 -0.550788 77.2332 -83.1785 -85.2034
RightUpLeg  -1.70852 -2.52054 6.83447
RightLeg  19.4114 -26.2091 -5.2713
RightFoot  -8.51943 -0.119227 2.49044
RightToes  -3.1126e-008 1.75238e-005 3.56266e-009
Spine  6.17923 -8.04809 10.2728
Spine1  21.3721 -12.9201 14.0845
HEad  -11.9206 12.281 -0.182653
LeftShoulder1  1.30522 -4.91663 -7.97914
LeftArm  -57.4827 -37.3146 -4.62571
LeftForeArm  17.5674 -50.9729 -12.5078
LeftHand  2.72663 -6.93309 -24.8967
RightShoulder  1.9266 3.95162 19.4369
RightArm  -32.9342 -27.1518 52.2435
RightForeArm  34.5821 14.9802 4.75638
RightHand  0.00150043 2.30201 -0.162725
LeftUpLeg  -9.5299 12.6718 12.4487
LeftLeg  33.6753 -2.00646 -1.09784
LeftFoot  -11.1478 0.0749823 -4.86417
LeftToes  4.78349e-008 1.46828e-008 1.33736e-009
196
root  -0.441524 39.3227 -0.541023 80.5895 -83.0542 -88.6176
RightUpLeg  -1.70088 -2.44072 7.00459
RightLeg  19.4223 -25.9576 -5.17739
RightFoot  -8.56356 -0.116305 2.40098
RightToes  -3.1126e-008 1.75238e-005 3.56266e-009
Spine  6.35075 -7.80357 10.4553
Spine1  21.4893 -12.7173 14.291
HEad  -11.6818 12.2494 -0.237387
LeftShoulder1  1.3353 -5.03482 -8.13346
LeftArm  -59.6546 -37.7706 -4.84687
LeftForeArm  20.6919 -51.7924 -12.6537
LeftHand  2.81634 -7.56703 -24.4314
RightShoulder  2.01945 4.34297 19.3166
RightArm  -32.7398 -25.2742 51.3556
RightForeArm  32.8221 15.2645 4.69473
RightHand  -0.0992133 2.88868 -1.61374
LeftUpLeg  -9.50437 12.2561 12.544
LeftLeg  33.8403 -1.34954 -0.632717
LeftFoot  -11.3204 0.0687263 -5.05942
LeftToes  4.78349e-008 1.46828e-008 1.33736e-009
197
root  -0.444606 39.3125 -0.532717 82.8275 -82.9542 -90.8684
RightUpLeg  -1.71247 -2.4515 7.07123
RightLeg  19.4449 -25.7403 -5.04325
RightFoot  -8.58969 -0.114201 2.34836
RightToes  -3.1126e-008 1.75238e-005 3.56266e-009
Spine  6.51355 -7.62065 10.6212
Spine1  21.3097 -12.5281 14.4529
HEad  -11.0175 11.9966 -0.386115
LeftShoulder1  1.37057 -5.15487 -8.34739
LeftArm  -61.4107 -38.2873 -5.23976
LeftForeArm  23.309 -52.3147 -12.694
LeftHand  1.93087 -6.15534 -18.7854
RightShoulder  2.09016 4.60924 19.3473
RightArm  -32.1523 -22.9284 50.0825
RightForeArm  33.1853 15.0382 4.76524
RightHand  -0.202095 3.2158 -2.98253
LeftUpLeg  -9.44394 11.9269 12.5989
LeftLeg  33.8715 -0.904455 -0.312023
LeftFoot  -11.4941 0.0619531 -5.19102
LeftToes  4.78349e-008 1.46828e-008 1.33736e-009
198
root  -0.44224 39.3067 -0.525598 85.1241 -82.8606 -93.0931
RightUpLeg  -1.80933 -2.3079 7.2139
RightLeg  19.4304 -25.6465 -5.04009
RightFoot  -8.55928 -0.113903 2.33297
RightToes  -3.1126e-008 1.75238e-005 3.56266e-009
Spine  6.41349 -7.39423 10.7889
Spine1  21.4265 -12.3488 14.5544
HEad  -10.9277 11.8593 -0.731804
LeftShoulder1  1.39074 -5.23146 -8.4511
LeftArm  -62.635 -39.0108 -5.60805
LeftForeArm  25.3623 -51.7489 -12.2499
LeftHand  0.993592 -4.30857 -11.7122
RightShoulder  2.09374 4.73098 18.9796
RightArm  -29.9561 -20.5463 49.1475
RightForeArm  31.5162 15.3108 5.12534
RightHand  -0.336884 3.12528 -4.82103
LeftUpLeg  -9.43635 11.8202 12.6508
LeftLeg  33.8351 -0.601327 -0.092179
LeftFoot  -11.6545 0.0556671 -5.17192
LeftToes  4.78349e-008 1.46828e-008 1.33736e-009
199
root  -0.469056 39.302 -0.528293 84.8026 -82.8096 -92.7192
RightUpLeg  -1.83299 -2.26129 7.29359
RightLeg  19.4551 -25.7149 -5.09537
RightFoot  -8.59197 -0.113935 2.31468
RightToes  -3.1126e-008 1.75238e-005 3.56266e-009
Spine  6.10705 -7.27776 11.0119
Spine1  21.5771 -12.2036 14.4192
HEad  -10.8073 11.6291 -0.623855
LeftShoulder1  1.40136 -5.39482 -8.25703
LeftArm  -63.1106 -40.0766 -6.09027
LeftForeArm  29.3839 -50.1501 -11.179
LeftHand  0.312965 -3.83669 -3.67497
RightShoulder  2.07901 4.67415 18.9771
RightArm  -27.044 -18.3701 48.2599
RightForeArm  27.4883 16.5936 5.2356
RightHand  -0.427108 4.24494 -5.42753
LeftUpLeg  -9.39947 11.6195 12.6538
LeftLeg  33.7327 -0.441415 0.0238589
LeftFoot  -11.829 0.0519277 -5.12445
LeftToes  4.78349e-008 1.46828e-008 1.33736e-009
